<svg width="112" height="100" viewBox="0 0 112 100" fill="none" xmlns="http://www.w3.org/2000/svg">
<rect width="112" height="100" fill="black"/>
<path d="M86.2 29.28H71.32V30.88H77V32.08H83.16V33.28H83V34.48H85.32V36.08H76.6V36.48H74.92V37.04C74.92 37.4133 74.84 37.76 74.68 38.08H80.36C79.9867 38.8267 79.3733 39.2 78.52 39.2H65.24V39.28H66.04V40.88H66.2V42.48H65.8V44.08H64.76V45.28H68.76V46.08H65.4V47.28H63.64V48.88H66.68V49.68H66.12V51.28H65.56V52.88H64.6V54.48H63.72V55.68H66.68V56.88H65.48V58.48H65.96V58.88H66.52V59.68H70.52V60.88H67.8V62.48H69V64.08H65.64V65.68H67V66.48H67.56V67.68H68.84V69.28H68.36V70.48H66.28V71.68H66.04V72.48H65.96V73.68H66.84V74.88H66.12V75.84C66.12 76.1067 66.0933 76.32 66.04 76.48H65.24C65.08 77.0133 64.7867 77.4133 64.36 77.68H64.52C64.2533 77.8933 63.88 78 63.4 78H47.4C46.9733 78 46.5733 77.8933 46.2 77.68H46.04C45.6667 77.4133 45.3733 77.0133 45.16 76.48H45.88C45.8267 76.32 45.8 76.1067 45.8 75.84V74.88H46.52V73.68H45.64V72.48H45.72V71.68H45.96V70.48H48.04V69.28H48.52V67.68H47.24V66.48H46.68V65.68H45.32V64.08H48.68V62.48H47.48V60.88H50.2V59.68H46.2V58.88H45.64V58.48H45.16V56.88H46.36V55.68H43.4V54.48H44.28V52.88H45.24V51.28H45.8V49.68H46.36V48.88H43.32V47.28H45.08V46.08H48.44V45.28H44.44V44.08H45.48V42.48H45.88V40.88H45.72V39.28H44.92V39.2H31.64C30.84 39.2 30.2 38.8267 29.72 38.08H24.04C23.9867 37.92 23.9333 37.76 23.88 37.6C23.7733 37.44 23.72 37.2533 23.72 37.04V36.48H25.4V36.08H34.12V34.48H31.8V33.28H31.96V32.08H25.8V30.88H20.12V29.28H35V28.08H26.68V26.48H28.28V24.88H30.36V24.48H31.56V24.16C31.56 23.6267 31.72 23.2 32.04 22.88H30.28C30.7067 22.2933 31.2933 22 32.04 22H78.92C79.6667 22 80.2533 22.2933 80.68 22.88H82.36C82.6267 23.2533 82.76 23.68 82.76 24.16V24.48H81.56V24.88H79.48V26.48H77.88V28.08H86.2V29.28Z" fill="white"/>
</svg>
