<svg width="480" height="480" viewBox="0 0 480 480" fill="none" xmlns="http://www.w3.org/2000/svg">
<g clip-path="url(#clip0_264_2)">
<path d="M56 416C25.128 416 0 441.128 0 472C0 476.424 3.576 480 8 480H104C108.424 480 112 476.424 112 472C112 441.128 86.872 416 56 416ZM16.808 464C19.992 448.36 32.36 436.072 48 432.88V448H64V432.88C79.64 436.08 92.008 448.36 95.192 464H16.808Z" fill="white"/>
<path d="M472 344H457.968C457.528 342.888 457.072 341.784 456.576 340.672L466.504 330.744C469.632 327.616 469.632 322.56 466.504 319.432L432.568 285.496C430.912 283.84 428.728 283.12 426.56 283.224C439.24 276.496 448 263.32 448 248V40C448 17.944 430.056 0 408 0H40C17.944 0 0 17.944 0 40V248C0 270.056 17.944 288 40 288H144.4L114.176 344H112H100C84.56 344 72 356.56 72 372C72 387.44 84.56 400 100 400H272C272 404.424 275.576 408 280 408H294.032C294.472 409.112 294.928 410.216 295.424 411.328L285.496 421.256C282.368 424.384 282.368 429.44 285.496 432.568L319.432 466.504C322.56 469.632 327.616 469.632 330.744 466.504L340.672 456.576C341.784 457.072 342.888 457.528 344 457.968V472C344 476.424 347.576 480 352 480H400C404.424 480 408 476.424 408 472V457.968C409.112 457.528 410.216 457.072 411.328 456.576L421.256 466.504C424.384 469.632 429.44 469.632 432.568 466.504L466.504 432.568C469.632 429.44 469.632 424.384 466.504 421.256L456.576 411.328C457.072 410.216 457.528 409.112 457.968 408H472C476.424 408 480 404.424 480 400V352C480 347.576 476.424 344 472 344ZM16 40C16 26.768 26.768 16 40 16H408C421.232 16 432 26.768 432 40V208H16V40ZM40 272C26.768 272 16 261.232 16 248V224H432V248C432 261.232 421.232 272 408 272H400H352H290.192H157.808H40ZM421.152 285.6L411.328 295.424C410.216 294.928 409.112 294.472 408 294.032V288C412.632 288 417.008 287.056 421.152 285.6ZM344 288V294.032C342.888 294.472 341.784 294.928 340.672 295.424L333.248 288H344ZM316.92 288L310.024 294.896L305.328 288H316.92ZM272 384H100C93.384 384 88 378.616 88 372C88 365.384 93.384 360 100 360H112H118.944H272V384ZM132.356 343.992L162.576 288H285.968L298.512 306.408L285.496 319.424C282.368 322.552 282.368 327.608 285.496 330.736L295.424 340.664C294.928 341.776 294.472 342.88 294.032 343.992H280H132.356ZM464 392H452.328C448.832 392 445.752 394.264 444.696 397.592C443.48 401.456 441.84 405.392 439.816 409.264C438.2 412.368 438.784 416.152 441.256 418.624L449.544 426.912L426.92 449.536L418.632 441.248C416.152 438.776 412.376 438.2 409.272 439.808C405.4 441.832 401.464 443.472 397.6 444.688C394.264 445.752 392 448.832 392 452.328V464H360V452.328C360 448.832 357.736 445.752 354.408 444.696C350.544 443.48 346.608 441.84 342.736 439.816C339.632 438.208 335.848 438.784 333.376 441.256L325.088 449.544L302.464 426.92L310.752 418.632C313.224 416.16 313.808 412.376 312.192 409.272C310.168 405.4 308.528 401.464 307.312 397.6C306.248 394.264 303.168 392 299.672 392H288V360H299.672C303.168 360 306.248 357.736 307.304 354.408C308.52 350.544 310.16 346.608 312.184 342.736C313.8 339.632 313.216 335.848 310.744 333.376L302.456 325.088L325.08 302.464L333.368 310.752C335.84 313.232 339.624 313.808 342.728 312.192C346.6 310.168 350.536 308.528 354.4 307.312C357.736 306.248 360 303.168 360 299.672V288H392V299.672C392 303.168 394.264 306.248 397.592 307.304C401.456 308.52 405.392 310.16 409.264 312.184C412.368 313.8 416.144 313.224 418.624 310.744L426.912 302.456L449.536 325.08L441.248 333.368C438.776 335.84 438.192 339.624 439.808 342.728C441.832 346.6 443.472 350.536 444.688 354.4C445.752 357.736 448.832 360 452.328 360H464V392Z" fill="white"/>
<path d="M376 328C349.528 328 328 349.528 328 376C328 402.472 349.528 424 376 424C402.472 424 424 402.472 424 376C424 349.528 402.472 328 376 328ZM376 408C358.352 408 344 393.648 344 376C344 358.352 358.352 344 376 344C393.648 344 408 358.352 408 376C408 393.648 393.648 408 376 408Z" fill="white"/>
<path d="M157.656 61.656L146.344 50.344L90.344 106.344C87.216 109.472 87.216 114.528 90.344 117.656L146.344 173.656L157.656 162.344L107.312 112L157.656 61.656Z" fill="white"/>
<path d="M333.656 106.344L277.656 50.344L266.344 61.656L316.688 112L266.344 162.344L277.656 173.656L333.656 117.656C336.784 114.528 336.784 109.472 333.656 106.344Z" fill="white"/>
<path d="M240.815 28.4667L168.836 172.425L183.146 179.58L255.125 35.6219L240.815 28.4667Z" fill="white"/>
<path d="M328 160H312V176H328V160Z" fill="white"/>
<path d="M360 160H344V176H360V160Z" fill="white"/>
<path d="M392 160H376V176H392V160Z" fill="white"/>
</g>
<defs>
<clipPath id="clip0_264_2">
<rect width="480" height="480" fill="white"/>
</clipPath>
</defs>
</svg>
