<svg width="329" height="144" viewBox="0 0 329 144" fill="none" xmlns="http://www.w3.org/2000/svg">
<path d="M35.7265 87V70.9H38.9465V87H35.7265ZM51.7422 78.191V84.309H57.4462V87H51.2592L48.5912 85.459V77.041L51.2592 75.5H57.4462V78.191H51.7422ZM63.1191 82.469V84.47H66.3621V82.469H63.1191ZM62.6361 87.115L59.9681 85.574V81.595L62.6361 80.054H66.3621V78.191H61.1181V75.5H66.8451L69.5131 77.041V87.115H67.9951L66.3621 86.172L64.7291 87.115H62.6361ZM83.1963 76.926V87H80.0453V78.076H76.1123V87H72.9613V75.385H75.5603L76.1123 76.328L77.7453 75.385H80.5283L83.1963 76.926ZM99.7446 79.732H99.6986L97.6746 87H94.4086L91.4646 75.5H94.3856L96.1796 82.837H96.2256L98.2726 75.5H101.171L103.218 82.837H103.264L105.058 75.5H107.979L105.035 87H101.769L99.7446 79.732ZM120.504 85.574L117.836 87.115H112.937L110.269 85.574V76.926L112.937 75.385H117.836L120.504 76.926V85.574ZM113.42 78.076V84.424H117.353V78.076H113.42ZM131.055 78.191H127.099V87H123.948V75.5H126.547L127.099 76.443L128.732 75.5H131.055V78.191ZM136.51 70.21V80.123H136.556L140.121 75.5H143.732L139.615 80.629L144.422 87H140.765L137.775 82.929L136.51 84.516V87H133.359V70.21H136.51ZM151.081 78.191V75.5H153.197V71.751L155.865 70.21H158.878V72.901H156.348V75.5H158.878V78.191H156.348V87H153.197V78.191H151.081ZM161.413 85.574V75.5H164.564V84.424H168.497V75.5H171.648V87.115H169.049L168.497 86.172L166.864 87.115H164.081L161.413 85.574ZM177.759 87L175.091 85.459V70.21H178.242V84.309H180.542V87H177.759ZM185.284 87L182.616 85.459V70.21H185.767V84.309H188.067V87H185.284ZM191.037 91.6L193.153 86.195L188.76 75.5H191.911L194.74 82.262H194.786L197.454 75.5H200.605L194.142 91.6H191.037ZM287.676 87V82.63H292.046V87H287.676ZM69.5813 96.9L75.3313 113H72.1573L70.9383 109.527H64.9123L63.6933 113H60.5193L66.2693 96.9H69.5813ZM67.9023 100.948L65.8783 106.767H69.9493L67.9483 100.948H67.9023ZM87.6324 102.926V113H84.4814V104.076H80.5484V113H77.3974V101.385H79.9964L80.5484 102.328L82.1814 101.385H84.9644L87.6324 102.926ZM93.7441 101.385H96.7571L98.3901 102.328V96.21H101.541V113.115H98.9421L98.3901 112.172L96.7571 113.115H93.7441L91.0761 111.574V102.926L93.7441 101.385ZM98.3901 110.424V104.076H94.2271V110.424H98.3901ZM178.809 104.191V101.5H180.925V99.568L184.076 97.751V101.5H186.606V104.191H184.076V110.309H186.606V113H183.593L180.925 111.459V104.191H178.809ZM199.825 111.574L197.157 113.115H192.258L189.59 111.574V102.926L192.258 101.385H197.157L199.825 102.926V111.574ZM192.741 104.076V110.424H196.674V104.076H192.741ZM218.788 110.309V113H211.911L209.243 111.459V102.926L211.911 101.385H216.12L218.788 102.926V108.423H212.394V110.309H218.788ZM212.394 104.076V106.054H215.637V104.076H212.394ZM224.019 101.5L226.664 109.044H226.71L229.378 101.5H232.529L228.274 113H225.123L220.868 101.5H224.019ZM244.146 110.309V113H237.269L234.601 111.459V102.926L237.269 101.385H241.478L244.146 102.926V108.423H237.752V110.309H244.146ZM237.752 104.076V106.054H240.995V104.076H237.752ZM254.713 104.191H250.757V113H247.606V101.5H250.205L250.757 102.443L252.39 101.5H254.713V104.191ZM257.914 117.6L260.03 112.195L255.637 101.5H258.788L261.617 108.262H261.663L264.331 101.5H267.482L261.019 117.6H257.914ZM103.97 130.191V127.5H106.086V125.568L109.237 123.751V127.5H111.767V130.191H109.237V136.309H111.767V139H108.754L106.086 137.459V130.191H103.97ZM117.901 127.5V139H114.75V127.5H117.901ZM114.635 125.361V122.21H118.016V125.361H114.635ZM137.522 128.926V139H134.371V130.076H131.013V139H127.862V130.076H124.504V139H121.353V127.385H123.952L124.504 128.328L126.137 127.385H128.345L130.484 128.627L132.646 127.385H134.854L137.522 128.926ZM150.507 136.309V139H143.63L140.962 137.459V128.926L143.63 127.385H147.839L150.507 128.926V134.423H144.113V136.309H150.507ZM144.113 130.076V132.054H147.356V130.076H144.113ZM153.047 136.792L158.015 130.237V130.191H153.277V127.5H162.155V129.708L157.187 136.263V136.309H162.155V139H153.047V136.792ZM175.14 137.574L172.472 139.115H167.573L164.905 137.574V128.926L167.573 127.385H172.472L175.14 128.926V137.574ZM168.056 130.076V136.424H171.989V130.076H168.056ZM188.819 128.926V139H185.668V130.076H181.735V139H178.584V127.385H181.183L181.735 128.328L183.368 127.385H186.151L188.819 128.926ZM201.808 136.309V139H194.931L192.263 137.459V128.926L194.931 127.385H199.14L201.808 128.926V134.423H195.414V136.309H201.808ZM195.414 130.076V132.054H198.657V130.076H195.414ZM214.375 133.342V137.459L211.707 139H205.267V136.309H211.224V134.538H207.935L205.267 132.997V129.041L207.935 127.5H214.145V130.191H208.418V131.801H211.707L214.375 133.342ZM218.283 139V134.63H222.653V139H218.283Z" fill="white"/>
<path d="M215.755 78.191H211.799V87H208.648V75.5H211.247L211.799 76.443L213.432 75.5H215.755V78.191ZM227.604 84.309V87H220.727L218.059 85.459V76.926L220.727 75.385H224.936L227.604 76.926V82.423H221.21V84.309H227.604ZM221.21 78.076V80.054H224.453V78.076H221.21ZM247.233 76.926V87H244.082V78.076H240.724V87H237.573V78.076H234.215V87H231.064V75.385H233.663L234.215 76.328L235.848 75.385H238.056L240.195 76.627L242.357 75.385H244.565L247.233 76.926ZM260.907 85.574L258.239 87.115H253.34L250.672 85.574V76.926L253.34 75.385H258.239L260.907 76.926V85.574ZM253.823 78.076V84.424H257.756V78.076H253.823ZM263.431 78.191V75.5H265.547V73.568L268.698 71.751V75.5H271.228V78.191H268.698V84.309H271.228V87H268.215L265.547 85.459V78.191H263.431ZM283.756 84.309V87H276.879L274.211 85.459V76.926L276.879 75.385H281.088L283.756 76.926V82.423H277.362V84.309H283.756ZM277.362 78.076V80.054H280.605V78.076H277.362ZM113.667 108.469V110.47H116.91V108.469H113.667ZM113.184 113.115L110.516 111.574V107.595L113.184 106.054H116.91V104.191H111.666V101.5H117.393L120.061 103.041V113.115H118.543L116.91 112.172L115.277 113.115H113.184ZM126.178 101.385H129.191L130.824 102.328V96.21H133.975V113.115H131.376L130.824 112.172L129.191 113.115H126.178L123.51 111.574V102.926L126.178 101.385ZM130.824 110.424V104.076H126.661V110.424H130.824ZM140.126 108.469V110.47H143.369V108.469H140.126ZM139.643 113.115L136.975 111.574V107.595L139.643 106.054H143.369V104.191H138.125V101.5H143.852L146.52 103.041V113.115H145.002L143.369 112.172L141.736 113.115H139.643ZM157.766 113.115H154.753L153.12 112.172V117.6H149.969V101.385H152.568L153.12 102.328L154.753 101.385H157.766L160.434 102.926V111.574L157.766 113.115ZM153.12 104.076V110.424H157.283V104.076H153.12ZM162.974 104.191V101.5H165.09V99.568L168.241 97.751V101.5H170.771V104.191H168.241V110.309H170.771V113H167.758L165.09 111.459V104.191H162.974Z" fill="#FF5112"/>
<path d="M50.49 19.2L40.878 57H32.778L25.974 31.458H25.866L19.062 57H10.962L1.35 19.2H8.694L15.066 45.12H15.174L22.086 19.2H29.754L36.666 45.012H36.774L43.146 19.2H50.49ZM85.8579 53.652L79.5939 57.27H62.6919L56.4279 53.652V22.548L62.6919 18.93H79.5939L85.8579 22.548V53.652ZM63.9879 25.41V50.79H78.2979V25.41H63.9879ZM123.703 57H115.387L107.287 42.744H102.589V57H95.0295V19.2H115.495L121.759 22.818V39.126L115.495 42.744L123.703 57ZM102.589 25.68V36.264H114.199V25.68H102.589ZM130.942 57V19.2H138.502V50.52H151.408V57H130.942ZM186.791 53.382L180.527 57H157.361V19.2H180.527L186.791 22.818V53.382ZM164.921 25.68V50.52H179.231V25.68H164.921ZM241.863 19.2L232.251 57H224.151L217.347 31.458H217.239L210.435 57H202.335L192.723 19.2H200.067L206.439 45.12H206.547L213.459 19.2H221.127L228.039 45.012H228.147L234.519 19.2H241.863ZM247.801 57V19.2H255.361V57H247.801ZM293.948 53.382L287.684 57H264.518V19.2H287.684L293.948 22.818V53.382ZM272.078 25.68V50.52H286.388V25.68H272.078ZM310.679 40.8V50.52H325.745V57H303.119V19.2H325.745V25.68H310.679V34.32H322.505V40.8H310.679Z" fill="white"/>
</svg>
