<svg width="332" height="143" viewBox="0 0 332 143" fill="none" xmlns="http://www.w3.org/2000/svg">
<path d="M14.6569 78.355V64.9H17.8769V79.574L15.2089 81.115H10.3099L7.64188 79.574V75.135H10.8619V78.355H14.6569ZM31.1001 78.309V81H24.2231L21.5551 79.459V70.926L24.2231 69.385H28.4321L31.1001 70.926V76.423H24.7061V78.309H31.1001ZM24.7061 72.076V74.054H27.9491V72.076H24.7061ZM48.3316 81.115H45.3186L43.6856 80.172V85.6H40.5346V69.385H43.1336L43.6856 70.328L45.3186 69.385H48.3316L50.9996 70.926V79.574L48.3316 81.115ZM43.6856 72.076V78.424H47.8486V72.076H43.6856ZM64.0054 78.309V81H57.1284L54.4604 79.459V70.926L57.1284 69.385H61.3374L64.0054 70.926V76.423H57.6114V78.309H64.0054ZM57.6114 72.076V74.054H60.8544V72.076H57.6114ZM67.4652 79.574V69.5H70.6162V78.424H74.5492V69.5H77.7002V81.115H75.1012L74.5492 80.172L72.9162 81.115H70.1332L67.4652 79.574ZM79.7639 81L83.9499 75.135L79.9019 69.5H83.3289L85.5829 72.743L87.8369 69.5H91.2639L87.1929 75.135L91.4019 81H88.0209L85.5829 77.55L83.1449 81H79.7639ZM98.5296 72.191V69.5H100.646V67.568L103.797 65.751V69.5H106.327V72.191H103.797V78.309H106.327V81H103.314L100.646 79.459V72.191H98.5296ZM116.417 72.191H112.461V81H109.31V69.5H111.909L112.461 70.443L114.094 69.5H116.417V72.191ZM121.412 76.469V78.47H124.655V76.469H121.412ZM120.929 81.115L118.261 79.574V75.595L120.929 74.054H124.655V72.191H119.411V69.5H125.138L127.806 71.041V81.115H126.288L124.655 80.172L123.022 81.115H120.929ZM133.025 69.5L135.67 77.044H135.716L138.384 69.5H141.535L137.28 81H134.129L129.874 69.5H133.025ZM146.299 76.469V78.47H149.542V76.469H146.299ZM145.816 81.115L143.148 79.574V75.595L145.816 74.054H149.542V72.191H144.298V69.5H150.025L152.693 71.041V81.115H151.175L149.542 80.172L147.909 81.115H145.816ZM159.292 69.5V81H156.141V69.5H159.292ZM156.026 67.361V64.21H159.407V67.361H156.026ZM165.413 81L162.745 79.459V64.21H165.896V78.309H168.196V81H165.413ZM172.937 81L170.269 79.459V64.21H173.42V78.309H175.72V81H172.937ZM187.338 78.309V81H180.461L177.793 79.459V70.926L180.461 69.385H184.67L187.338 70.926V76.423H180.944V78.309H187.338ZM180.944 72.076V74.054H184.187V72.076H180.944ZM197.905 72.191H193.949V81H190.798V69.5H193.397L193.949 70.443L195.582 69.5H197.905V72.191ZM319.151 81V76.63H323.521V81H319.151ZM41.2556 102.1V106.24H47.6726V109H38.0356V92.9H47.6726V95.66H41.2556V99.34H46.2926V102.1H41.2556ZM49.5086 100.191V97.5H51.6246V95.568L54.7756 93.751V97.5H57.3056V100.191H54.7756V106.309H57.3056V109H54.2926L51.6246 107.459V100.191H49.5086ZM82.4326 98.926V109H79.2816V100.076H75.9236V109H72.7726V100.076H69.4146V109H66.2636V97.385H68.8626L69.4146 98.328L71.0476 97.385H73.2556L75.3946 98.627L77.5566 97.385H79.7646L82.4326 98.926ZM86.102 101.18V92.21H90.472V94.096L87.988 101.18H86.102ZM188.02 104.469V106.47H191.263V104.469H188.02ZM187.537 109.115L184.869 107.574V103.595L187.537 102.054H191.263V100.191H186.019V97.5H191.746L194.414 99.041V109.115H192.896L191.263 108.172L189.63 109.115H187.537ZM190.366 92.486L192.528 95.43H189.768L186.456 92.486H190.366ZM202.917 100.191V97.5H205.033V95.568L208.184 93.751V97.5H210.714V100.191H208.184V106.309H210.714V109H207.701L205.033 107.459V100.191H202.917ZM223.932 107.574L221.264 109.115H216.365L213.697 107.574V98.926L216.365 97.385H221.264L223.932 98.926V107.574ZM216.848 100.076V106.424H220.781V100.076H216.848ZM227.376 107.574V97.5H230.527V106.424H234.46V97.5H237.611V109.115H235.012L234.46 108.172L232.827 109.115H230.044L227.376 107.574ZM250.163 103.342V107.459L247.495 109H241.055V106.309H247.012V104.538H243.723L241.055 102.997V99.041L243.723 97.5H249.933V100.191H244.206V101.801H247.495L250.163 103.342ZM262.253 109L259.585 107.459V92.21H262.736V106.309H265.036V109H262.253ZM276.654 106.309V109H269.777L267.109 107.459V98.926L269.777 97.385H273.986L276.654 98.926V104.423H270.26V106.309H276.654ZM270.26 100.076V102.054H273.503V100.076H270.26ZM289.222 103.342V107.459L286.554 109H280.114V106.309H286.071V104.538H282.782L280.114 102.997V99.041L282.782 97.5H288.992V100.191H283.265V101.801H286.554L289.222 103.342ZM70.7904 128.191V125.5H72.9064V121.751L75.5744 120.21H78.5874V122.901H76.0574V125.5H78.5874V128.191H76.0574V137H72.9064V128.191H70.7904ZM81.1215 135.574V125.5H84.2725V134.424H88.2055V125.5H91.3565V137.115H88.7575L88.2055 136.172L86.5725 137.115H83.7895L81.1215 135.574ZM103.908 131.342V135.459L101.24 137H94.8002V134.309H100.757V132.538H97.4682L94.8002 130.997V127.041L97.4682 125.5H103.678V128.191H97.9512V129.801H101.24L103.908 131.342ZM116.901 134.309V137H110.024L107.356 135.459V126.926L110.024 125.385H114.233L116.901 126.926V132.423H110.507V134.309H116.901ZM110.507 128.076V130.054H113.75V128.076H110.507ZM123.052 132.469V134.47H126.295V132.469H123.052ZM122.569 137.115L119.901 135.574V131.595L122.569 130.054H126.295V128.191H121.051V125.5H126.778L129.446 127.041V137.115H127.928L126.295 136.172L124.662 137.115H122.569ZM132.894 135.574V125.5H136.045V134.424H139.978V125.5H143.129V137.115H140.53L139.978 136.172L138.345 137.115H135.562L132.894 135.574ZM145.193 137L149.379 131.135L145.331 125.5H148.758L151.012 128.743L153.266 125.5H156.693L152.622 131.135L156.831 137H153.45L151.012 133.55L148.574 137H145.193ZM168.029 137H164.878V120.21H168.029V126.328L169.662 125.385H172.675L175.343 126.926V137H172.192V128.076H168.029V137ZM189.039 135.574L186.371 137.115H181.472L178.804 135.574V126.926L181.472 125.385H186.371L189.039 126.926V135.574ZM181.955 128.076V134.424H185.888V128.076H181.955ZM199.59 128.191H195.634V137H192.483V125.5H195.082L195.634 126.443L197.267 125.5H199.59V128.191ZM204.585 132.469V134.47H207.828V132.469H204.585ZM204.102 137.115L201.434 135.574V131.595L204.102 130.054H207.828V128.191H202.584V125.5H208.311L210.979 127.041V137.115H209.461L207.828 136.172L206.195 137.115H204.102ZM217.578 125.5V137H214.427V125.5H217.578ZM214.312 123.361V120.21H217.693V123.361H214.312ZM228.138 128.191H224.182V137H221.031V125.5H223.63L224.182 126.443L225.815 125.5H228.138V128.191ZM239.987 134.309V137H233.11L230.442 135.459V126.926L233.11 125.385H237.319L239.987 126.926V132.423H233.593V134.309H239.987ZM233.593 128.076V130.054H236.836V128.076H233.593ZM252.555 131.342V135.459L249.887 137H243.447V134.309H249.404V132.538H246.115L243.447 130.997V127.041L246.115 125.5H252.325V128.191H246.598V129.801H249.887L252.555 131.342ZM256.462 137V132.63H260.832V137H256.462Z" fill="white"/>
<path d="M208.875 76.469V78.47H212.118V76.469H208.875ZM208.392 81.115L205.724 79.574V75.595L208.392 74.054H212.118V72.191H206.874V69.5H212.601L215.269 71.041V81.115H213.751L212.118 80.172L210.485 81.115H208.392ZM211.221 64.486L213.383 67.43H210.623L207.311 64.486H211.221ZM227.36 69.385H230.373L232.006 70.328V64.21H235.157V81.115H232.558L232.006 80.172L230.373 81.115H227.36L224.692 79.574V70.926L227.36 69.385ZM232.006 78.424V72.076H227.843V78.424H232.006ZM241.769 69.5V81H238.618V69.5H241.769ZM238.503 67.361V64.21H241.884V67.361H238.503ZM254.329 75.342V79.459L251.661 81H245.221V78.309H251.178V76.538H247.889L245.221 74.997V71.041L247.889 69.5H254.099V72.191H248.372V73.801H251.661L254.329 75.342ZM256.857 72.191V69.5H258.973V67.568L262.124 65.751V69.5H264.654V72.191H262.124V78.309H264.654V81H261.641L258.973 79.459V72.191H256.857ZM270.328 76.469V78.47H273.571V76.469H270.328ZM269.845 81.115L267.177 79.574V75.595L269.845 74.054H273.571V72.191H268.327V69.5H274.054L276.722 71.041V81.115H275.204L273.571 80.172L271.938 81.115H269.845ZM290.405 70.926V81H287.254V72.076H283.321V81H280.17V69.385H282.769L283.321 70.328L284.954 69.385H287.737L290.405 70.926ZM297 72.191V78.309H302.704V81H296.517L293.849 79.459V71.041L296.517 69.5H302.704V72.191H297ZM315.231 78.309V81H308.354L305.686 79.459V70.926L308.354 69.385H312.563L315.231 70.926V76.423H308.837V78.309H315.231ZM308.837 72.076V74.054H312.08V72.076H308.837ZM96.8511 104.469V106.47H100.094V104.469H96.8511ZM96.3681 109.115L93.7001 107.574V103.595L96.3681 102.054H100.094V100.191H94.8501V97.5H100.577L103.245 99.041V109.115H101.727L100.094 108.172L98.4611 109.115H96.3681ZM109.361 97.385H112.374L114.007 98.328V92.21H117.158V109.115H114.559L114.007 108.172L112.374 109.115H109.361L106.693 107.574V98.926L109.361 97.385ZM114.007 106.424V100.076H109.844V106.424H114.007ZM123.31 104.469V106.47H126.553V104.469H123.31ZM122.827 109.115L120.159 107.574V103.595L122.827 102.054H126.553V100.191H121.309V97.5H127.036L129.704 99.041V109.115H128.186L126.553 108.172L124.92 109.115H122.827ZM140.949 109.115H137.936L136.303 108.172V113.6H133.152V97.385H135.751L136.303 98.328L137.936 97.385H140.949L143.617 98.926V107.574L140.949 109.115ZM136.303 100.076V106.424H140.466V100.076H136.303ZM146.158 100.191V97.5H148.274V95.568L151.425 93.751V97.5H153.955V100.191H151.425V106.309H153.955V109H150.942L148.274 107.459V100.191H146.158ZM166.483 106.309V109H159.606L156.938 107.459V98.926L159.606 97.385H163.815L166.483 98.926V104.423H160.089V106.309H166.483ZM160.089 100.076V102.054H163.332V100.076H160.089ZM177.05 100.191H173.094V109H169.943V97.5H172.542L173.094 98.443L174.727 97.5H177.05V100.191Z" fill="#FF5112"/>
<path d="M3.655 45V14.9H9.675V45H3.655ZM22.9865 25.521V45H16.9665V14.9H22.5995L35.5855 34.379H35.6715V14.9H41.6915V45H36.0585L23.0725 25.521H22.9865ZM60.5736 20.06V45H54.5536V20.06H46.4266V14.9H68.7006V20.06H60.5736ZM79.466 32.1V39.84H91.463V45H73.446V14.9H91.463V20.06H79.466V26.94H88.883V32.1H79.466ZM119.879 45H113.257L106.807 33.648H103.066V45H97.0456V14.9H113.343L118.331 17.781V30.767L113.343 33.648L119.879 45ZM103.066 20.06V28.488H112.311V20.06H103.066ZM131.662 25.521V45H125.642V14.9H131.275L144.261 34.379H144.347V14.9H150.367V45H144.734L131.748 25.521H131.662ZM171.614 14.9L182.364 45H176.43L174.151 38.507H162.885L160.606 45H154.672L165.422 14.9H171.614ZM168.475 22.468L164.691 33.347H172.302L168.561 22.468H168.475ZM196.082 20.06V45H190.062V20.06H181.935V14.9H204.209V20.06H196.082ZM208.955 45V14.9H214.975V45H208.955ZM245.701 42.334L240.713 45.215H227.254L222.266 42.334V17.566L227.254 14.685H240.713L245.701 17.566V42.334ZM228.286 19.845V40.055H239.681V19.845H228.286ZM259.025 25.521V45H253.005V14.9H258.638L271.624 34.379H271.71V14.9H277.73V45H272.097L259.111 25.521H259.025ZM298.977 14.9L309.727 45H303.793L301.514 38.507H290.248L287.969 45H282.035L292.785 14.9H298.977ZM295.838 22.468L292.054 33.347H299.665L295.924 22.468H295.838ZM314.019 45V14.9H320.039V39.84H330.316V45H314.019Z" fill="white"/>
</svg>
