<svg width="322" height="78" viewBox="0 0 322 78" fill="none" xmlns="http://www.w3.org/2000/svg">
<path d="M17.7827 15.7112C17.7827 35.5737 17.7827 55.4097 17.7827 75.2192C15.2609 75.6297 12.7358 76.0336 10.2073 76.4309C10.214 56.33 10.214 36.2159 10.2073 16.0886C6.81153 16.2608 3.41244 16.4395 0.0100071 16.6249C0.0100071 12.4141 0.00667143 8.21645 0 4.03209C9.33333 3.75401 18.6667 3.48918 28 3.23759C27.9933 7.22333 27.9933 11.2223 28 15.2345C24.5909 15.3934 21.1851 15.5523 17.7827 15.7112ZM41.5297 42.0489C41.523 47.9282 41.5197 53.7942 41.5197 59.6471C46.5432 58.9585 51.5702 58.2633 56.6004 57.5615C56.5938 61.3354 56.5938 65.1026 56.6004 68.8632C49.055 70.0947 41.5096 71.3262 33.9643 72.5577C33.9576 49.4113 33.9576 26.2516 33.9643 3.07869C41.5096 2.86682 49.055 2.65495 56.6004 2.44309C56.6004 6.24344 56.6004 10.0438 56.6004 13.8442C51.5702 14.0957 46.5466 14.3407 41.5297 14.5791C41.5297 19.8095 41.5263 25.04 41.5197 30.2704C45.4625 29.9659 49.4053 29.6547 53.3481 29.3369C53.3481 33.177 53.3514 37.0104 53.3581 40.8373C49.4153 41.2345 45.4725 41.6384 41.5297 42.0489ZM83.8799 46.2796C86.4017 45.9883 88.9202 45.697 91.4353 45.4056C91.4353 49.59 91.4386 53.7545 91.4453 57.8992C89.3572 60.1635 87.269 62.4344 85.1808 64.712C80.0839 65.533 74.9836 66.354 69.8799 67.1749C67.7918 65.4668 65.7003 63.7453 63.6054 62.0107C63.6054 44.0815 63.6088 26.0993 63.6154 8.06417C65.7036 5.89254 67.7951 3.74739 69.8899 1.62872C74.9869 1.49631 80.0839 1.36389 85.1808 1.23147C87.269 3.178 89.3538 5.1179 91.4353 7.05118C91.442 11.3018 91.442 15.5523 91.4353 19.8029C88.9202 19.9486 86.4017 20.0942 83.8799 20.2399C83.8799 17.5386 83.8799 14.8307 83.8799 12.1161C79.6502 12.3015 75.4172 12.4935 71.1808 12.6921C71.1742 27.1917 71.1742 41.6384 71.1808 56.0321C75.4172 55.4494 79.6502 54.8668 83.8799 54.2842C83.8799 51.6226 83.8799 48.9544 83.8799 46.2796ZM107.647 35.5539C107.64 43.9888 107.64 52.3906 107.647 60.7594C105.118 61.1434 102.597 61.534 100.081 61.9312C100.081 41.9231 100.081 21.7097 100.081 1.29106C102.603 1.22485 105.125 1.16527 107.647 1.1123C107.647 9.2162 107.647 17.287 107.647 25.3247C112.604 24.9936 117.557 24.6825 122.508 24.3911C122.501 16.5786 122.501 8.71301 122.508 0.7945C125.029 0.754775 127.548 0.708429 130.063 0.655462C130.07 20.0015 130.073 38.9305 130.073 57.4423C127.551 57.7998 125.029 58.164 122.508 58.5348C122.508 50.5103 122.508 42.4263 122.508 34.2827C117.551 34.6931 112.597 35.1169 107.647 35.5539ZM153.269 28.2842C153.276 20.8026 153.279 13.2152 153.279 5.52177C155.368 3.68118 157.452 1.84059 159.534 0C164.097 0 168.66 0.0132421 173.224 0.0397254C175.312 1.9068 177.397 3.77387 179.478 5.64095C179.478 9.29565 179.482 12.9371 179.488 16.5653C176.966 16.5124 174.445 16.4594 171.923 16.4064C171.916 14.248 171.916 12.083 171.923 9.91138C168.227 9.87166 164.534 9.85179 160.845 9.85179C160.845 14.354 160.845 18.823 160.845 23.259C164.968 23.2855 169.094 23.3384 173.224 23.4179C175.312 25.2452 177.4 27.0858 179.488 28.9396C179.488 36.4609 179.488 43.8829 179.488 51.2055C177.4 52.6753 175.312 54.1253 173.224 55.5554C168.48 55.2376 163.74 55.0522 159.004 54.9992C156.909 53.4764 154.821 51.9603 152.739 50.4507C152.739 47.1933 152.739 43.9027 152.739 40.5791C155.261 40.5129 157.783 40.4665 160.304 40.44C160.304 42.4263 160.304 44.3993 160.304 46.3591C164.167 46.412 168.04 46.518 171.923 46.6769C171.916 42.3468 171.916 37.9771 171.923 33.5676C167.8 33.4749 163.67 33.4153 159.534 33.3888C157.452 31.6807 155.364 29.9791 153.269 28.2842ZM203.225 11.1031C203.225 27.2977 203.225 43.2737 203.225 59.0313C200.703 58.6606 198.182 58.2964 195.66 57.9389C195.653 42.4991 195.653 26.8011 195.66 10.8449C192.251 10.739 188.845 10.6463 185.442 10.5668C185.442 7.24319 185.442 3.90629 185.442 0.55615C194.776 0.71505 204.109 0.887191 213.442 1.07257C213.442 4.54189 213.442 8.0112 213.442 11.4805C210.027 11.3481 206.621 11.2223 203.225 11.1031ZM234.217 1.589C238.72 22.8816 243.224 44.3463 247.727 65.9832C245.238 65.5859 242.753 65.1887 240.272 64.7914C239.318 60.1833 238.364 55.5752 237.41 50.9671C232.68 50.3713 227.959 49.782 223.249 49.1994C222.295 53.3705 221.341 57.5218 220.387 61.6532C217.892 61.2692 215.407 60.8851 212.932 60.5011C217.435 41.3007 221.939 21.5971 226.442 1.39037C229.03 1.45658 231.622 1.52279 234.217 1.589ZM230.274 17.2009C228.687 24.55 227.099 31.8462 225.511 39.0894C228.7 39.4072 231.889 39.725 235.078 40.0428C233.517 32.4156 231.949 24.8016 230.375 17.2009C230.341 17.2009 230.308 17.2009 230.274 17.2009ZM273.385 50.4507C275.9 50.7553 278.419 51.0665 280.941 51.3843C280.947 56.0453 280.951 60.6998 280.951 65.3476C278.863 67.1882 276.774 69.0089 274.686 70.8098C269.583 69.9755 264.486 69.1479 259.395 68.327C257.3 65.9302 255.206 63.5467 253.111 61.1765C253.117 43.4724 253.121 25.7021 253.121 7.86555C255.202 5.83957 257.29 3.82684 259.385 1.82735C264.482 1.95977 269.583 2.09218 274.686 2.2246C276.774 4.43596 278.863 6.66718 280.951 8.91826C280.944 13.5793 280.944 18.247 280.951 22.9213C278.422 22.7624 275.897 22.6035 273.375 22.4446C273.382 19.5447 273.382 16.6448 273.375 13.7448C269.146 13.5462 264.916 13.3476 260.686 13.149C260.686 27.9134 260.686 42.6448 260.686 57.343C264.916 57.9389 269.146 58.5281 273.375 59.1108C273.382 56.2241 273.385 53.3374 273.385 50.4507ZM289.577 72.7762C289.584 49.5635 289.587 26.3377 289.587 3.09855C292.102 3.178 294.62 3.25083 297.142 3.31704C297.149 13.8839 297.152 24.4772 297.152 35.097C297.186 35.1103 297.219 35.1169 297.252 35.1169C301.956 24.7487 306.659 14.2745 311.362 3.69442C314.358 3.78711 317.35 3.87981 320.339 3.9725C315.362 15.1352 310.388 26.1986 305.418 37.1627C310.949 50.6162 316.476 64.2287 322 78C318.985 77.5365 315.962 77.0665 312.934 76.5898C308.917 66.632 304.901 56.7604 300.885 46.9748C299.644 49.5834 298.4 52.1854 297.152 54.7807C297.152 61.2162 297.152 67.6252 297.152 74.0076C294.624 73.5971 292.099 73.1867 289.577 72.7762Z" fill="white"/>
</svg>
